<svg version="1.1" id="Layer_1" xmlns="http://www.w3.org/2000/svg" xmlns:xlink="http://www.w3.org/1999/xlink" viewBox="0 0 403 404" style="enable-background:new 0 0 403 404;" xml:space="preserve">
<style type="text/css">
	.st0{fill:#1A1A1A;}
	.st1{fill:#292929;}
	.st2{fill:#FF605A;}
	.st3{fill:#FFEC59;}
	.st4{fill:#61FF83;}
	.st5{fill:#FFFFFF;}
	.st6{fill:#3FC5BF;}
	.st7{fill:#7FD8D4;}
	.st8{fill:#1FBBB4;}
	.st9{fill:#FDFDFD;}
	.st10{fill:#0FB6AF;}
	.st11{fill:#313A43;}
</style>
<path class="st0" d="M380.3,403.5H22.1c-12.4,0-22.5-10.1-22.5-22.5V22.8c0-12.4,10.1-22.5,22.5-22.5h358.2
	c12.4,0,22.5,10.1,22.5,22.5V381C402.8,393.4,392.8,403.5,380.3,403.5z"/>
<path class="st1" d="M402.4,99.5H-0.8V22.6c0-12.3,10-22.3,22.3-22.3h358.6c12.3,0,22.3,10,22.3,22.3V99.5z"/>
<circle class="st2" cx="42.9" cy="52.2" r="17.2"/>
<circle class="st3" cx="87.6" cy="52.2" r="17.2"/>
<circle class="st4" cx="132.3" cy="52.2" r="17.2"/>
<g>
	<path class="st5" d="M344.9,50.9h15.7V35.6h2.5v15.3h15.6v2.8h-15.6v15.8h-2.5V53.7h-15.7V50.9z"/>
</g>
<g>
	<path class="st6" d="M214.8,274.3c-0.6-0.1-1.3-0.3-1.9-0.3c-30.4,0-60.8,0-91.2,0c-0.7,0-1.4,0-2,0c0.3-4.7,0.6-9.3,0.9-14
		c4,1.3,8.1,1.8,12.3,1.3c16.4-2.1,26.3-20.3,19.2-35.3c-2.6-5.5-6.8-9.6-12.2-12.3c2.3-2.8,4.5-5.6,6.9-8.3
		c6.2-6.6,13.2-12.2,20.9-17c7.1-4.3,14.6-7.7,22.6-10.2c9.6-3,19.5-4.4,29.6-4.5c13.4,0.1,26.4,2.5,38.8,7.8
		c23.7,10.2,41.1,27.1,52.2,50.4c4.9,10.3,7.6,21.2,8.8,32.5c0.1,1,0.3,1.9,0.4,2.9c0,2.2,0,4.4,0,6.6c-32,0-64,0-96,0
		c1.1,0.3,2.3,0.5,3.4,0.6c10.5,1.5,19.5,6.1,27.1,13.3c3.6,3.4,6.5,7.3,8.9,11.6c4.3,7.7,6.4,15.8,6.4,24.6c-8.3,0-16.7,0-25,0
		c-7.5,0-15,0-22.5,0c6.4-1.7,10.1-7.4,9.9-12.5c0-6.9-5.6-12.5-12.5-12.5c0-8.3,0-16.6,0-25.2C217.9,274.1,216.3,274.2,214.8,274.3
		z"/>
	<path class="st7" d="M269.9,324.2c0-8.8-2.1-17-6.4-24.6c-2.4-4.3-5.4-8.2-8.9-11.6c-7.7-7.2-16.7-11.8-27.1-13.3
		c-1.1-0.2-2.3-0.3-3.4-0.6c32,0,64,0,96,0c0,1.8,0,3.5,0,5.3c-0.1,0.3-0.2,0.6-0.3,0.9c-0.4,3.7-0.7,7.5-1.3,11.1
		c-1.5,9.3-4.4,18.1-8.5,26.5c-5.9,12-13.8,22.5-23.9,31.4c-6.9,6.1-14.5,11.1-22.7,15.1c-8,3.8-16.3,6.6-25,8.2
		c-2.6,0.5-5.2,0.7-7.8,1c0.5-0.2,0.9-0.5,1.4-0.7c11.3-2.9,20.6-8.9,27.6-18.1C266.4,345.8,269.9,335.5,269.9,324.2z"/>
	<path class="st8" d="M224.8,374.1c-1.7,0.1-3.3,0.2-5,0.2c0-8.3,0-16.7,0-25c13.9,0.1,25.2-11.5,25.1-25.1c8.3,0,16.7,0,25,0
		c0,11.4-3.5,21.6-10.4,30.6c-7.1,9.2-16.3,15.7-27.6,18.5C231.4,373.4,226.2,374,224.8,374.1z"/>
	<path class="st6" d="M219.8,349.2c0,8.3,0,16.7,0,25c-1.7,0-3.3,0-5-0.1c-1.5-0.2-2.9-0.5-4.4-0.8c-20.6-3.9-36.6-20.1-40-40.7
		c-0.5-2.8-0.5-5.7-0.7-8.5c8.3,0,16.7,0,25,0C194.7,337.9,205.9,349.2,219.8,349.2z"/>
	<path class="st7" d="M120.5,260c-0.3,4.7-0.6,9.3-0.9,14c-10,0-20,0-30.1,0c-6.1,0-12.1,0-18.2,0c-0.6,0-1.1,0-2,0
		c0.4-36.4,11.8-68.9,35.3-96.5c30-35.3,68.6-52.8,115.2-54c0,16.9,0,33.6,0,50.2c-10.1,0-20,1.5-29.6,4.5
		c-7.9,2.4-15.5,5.8-22.6,10.2c-7.7,4.7-14.7,10.4-20.9,17c-2.4,2.6-4.6,5.5-6.9,8.3c-2.9-0.7-5.8-1.9-8.7-2.2
		c-8.3-0.6-15.3,2.3-20.8,8.6c-6.4,7.3-7.9,18.2-3.7,26.9C109.5,253.2,114.2,257.4,120.5,260z"/>
	<path class="st7" d="M194.7,324.1c-8.3,0-16.7,0-25,0c0-11.3,3.4-21.4,10.2-30.4c7.1-9.4,16.5-15.5,27.9-18.3
		c2.3-0.6,4.6-0.8,6.9-1.2c1.6-0.1,3.2-0.3,5-0.4c0,8.5,0,16.8,0,25.2c0,0,0,0,0,0C205.9,299.1,194.8,310.3,194.7,324.1L194.7,324.1
		z"/>
	<path class="st9" d="M120.5,260c-6.3-2.6-11-6.8-14-13c-4.2-8.7-2.7-19.6,3.7-26.9c5.5-6.3,12.5-9.2,20.8-8.6
		c2.9,0.2,5.8,1.4,8.7,2.2c5.4,2.8,9.6,6.8,12.2,12.3c7.1,15-2.9,33.1-19.2,35.3C128.6,261.8,124.5,261.3,120.5,260z M116.8,236.3
		c-0.1,6.9,5.5,12.6,12.4,12.7c6.9,0.1,12.6-5.5,12.7-12.4c0.1-6.9-5.5-12.6-12.4-12.7C122.5,223.9,116.8,229.4,116.8,236.3z"/>
	<path class="st10" d="M219.8,349.2c-13.9,0-25.1-11.3-25-25.1c0,0,0,0,0,0c7.7,0,15.4,0,23.2,0c0.6,0,1.2-0.1,1.9-0.1
		c0-4.3,0-8.3,0-12.4l0,0c4.2,0,8.3,0,12.5,0c0.2,5.2-3.6,10.8-9.9,12.5c7.5,0,15,0,22.5,0C245,337.7,233.7,349.3,219.8,349.2z"/>
	<path class="st8" d="M232.3,311.6c-4.2,0-8.3,0-12.5,0c0-4.2,0-8.4,0-12.5c0,0,0,0,0,0C226.8,299.1,232.4,304.7,232.3,311.6z"/>
	<path class="st7" d="M228.9,373.6c0.2-0.1,0.5-0.1,0.7-0.2C229.4,373.5,229.1,373.6,228.9,373.6z"/>
	<path class="st6" d="M219.8,299.1c0,4.2,0,8.4,0,12.5c0,0,0,0,0,0c-3.7,0-7.5,0-11.2,0c-0.9,0-1.4,0.2-1.3,1.2
		c0.4,2.7,1.4,5.2,3.3,7.3c2,2.2,4.6,3.3,7.3,4.1c-7.7,0-15.4,0-23.2,0C194.8,310.3,205.9,299.1,219.8,299.1z"/>
	<path class="st11" d="M116.8,236.3c0.1-6.9,5.8-12.4,12.7-12.4c6.9,0.1,12.4,5.8,12.4,12.7c-0.1,6.9-5.8,12.4-12.7,12.4
		C122.3,248.9,116.7,243.2,116.8,236.3z"/>
	<path class="st8" d="M217.9,324.1c-2.8-0.8-5.4-1.8-7.3-4.1c-1.9-2.1-2.9-4.5-3.3-7.3c-0.1-1,0.4-1.2,1.3-1.2c3.7,0,7.5,0,11.2,0
		c0,4.1,0,8.2,0,12.4C219.1,324.1,218.5,324.1,217.9,324.1z"/>
</g>
</svg>
